HIERARCHY
ROOT Hips
{
	OFFSET 0.000000 100.481300 0.000000
	CHANNELS 6 Xposition Yposition Zposition Xrotation Yrotation Zrotation 
	JOINT Spine
	{
		OFFSET -0.279200 12.230698 -2.892100
		CHANNELS 3 Xrotation Yrotation Zrotation
		JOINT Spine1
		{
			OFFSET -0.232667 10.192268 -1.242267
			CHANNELS 3 Xrotation Yrotation Zrotation
			JOINT Spine1_split
			{
				OFFSET -0.232667 10.192268 -1.242267
				CHANNELS 3 Xrotation Yrotation Zrotation
				JOINT Spine2
				{
					OFFSET -0.232667 10.192268 -1.242267
					CHANNELS 3 Xrotation Yrotation Zrotation
					JOINT Neck
					{
						OFFSET -0.418800 17.814194 8.416900
						CHANNELS 3 Xrotation Yrotation Zrotation
						JOINT Head
						{
							OFFSET 0.000000 7.031097 3.806800
							CHANNELS 3 Xrotation Yrotation Zrotation
							JOINT HeadTop_End
							{
								OFFSET 0.000000 24.646606 12.978600
								CHANNELS 3 Xrotation Yrotation Zrotation
								End Site
								{
									OFFSET 0.000000 0.000000 0.000000
								}
							}
						}
					}
					JOINT LeftShoulder
					{
						OFFSET 8.476499 7.247704 -3.868750
						CHANNELS 3 Xrotation Yrotation Zrotation
						JOINT LeftShoulder_split
						{
							OFFSET 8.476499 7.247704 -3.868750
							CHANNELS 3 Xrotation Yrotation Zrotation
							JOINT LeftArm
							{
								OFFSET 9.308998 -2.777710 0.208600
								CHANNELS 3 Xrotation Yrotation Zrotation
								JOINT LeftForeArm
								{
									OFFSET 29.972298 0.000000 0.000000
									CHANNELS 3 Xrotation Yrotation Zrotation
									JOINT LeftHand
									{
										OFFSET 26.026505 0.000000 0.000000
										CHANNELS 3 Xrotation Yrotation Zrotation
										JOINT LeftHandThumb1
										{
											OFFSET 12.240501 -7.147949 9.207150
											CHANNELS 3 Xrotation Yrotation Zrotation
											JOINT LeftHandThumb2
											{
												OFFSET 4.138618 -2.389435 2.389433
												CHANNELS 3 Xrotation Yrotation Zrotation
												JOINT LeftHandThumb3
												{
													OFFSET 2.726913 -1.574387 1.574386
													CHANNELS 3 Xrotation Yrotation Zrotation
													JOINT LeftHandThumb4
													{
														OFFSET 3.941010 -2.275345 2.275342
														CHANNELS 3 Xrotation Yrotation Zrotation
														End Site
														{
															OFFSET 0.000000 0.000000 0.000000
														}
													}
												}
											}
										}
										JOINT LeftHandIndex1
										{
											OFFSET 24.424698 -1.985611 5.953459
											CHANNELS 3 Xrotation Yrotation Zrotation
											JOINT LeftHandIndex2
											{
												OFFSET 6.426697 0.000000 0.000000
												CHANNELS 3 Xrotation Yrotation Zrotation
												JOINT LeftHandIndex3
												{
													OFFSET 5.337898 0.000000 0.000000
													CHANNELS 3 Xrotation Yrotation Zrotation
													JOINT LeftHandIndex4
													{
														OFFSET 4.409401 0.000000 0.000000
														CHANNELS 3 Xrotation Yrotation Zrotation
														End Site
														{
															OFFSET 0.000000 0.000000 0.000000
														}
													}
												}
											}
										}
										JOINT LeftHandMiddle1
										{
											OFFSET 23.810104 0.000000 0.000000
											CHANNELS 3 Xrotation Yrotation Zrotation
											JOINT LeftHandMiddle2
											{
												OFFSET 7.176498 0.000000 0.000000
												CHANNELS 3 Xrotation Yrotation Zrotation
												JOINT LeftHandMiddle3
												{
													OFFSET 6.774902 0.000000 0.000000
													CHANNELS 3 Xrotation Yrotation Zrotation
													JOINT LeftHandMiddle4
													{
														OFFSET 5.403328 0.000000 0.000000
														CHANNELS 3 Xrotation Yrotation Zrotation
														End Site
														{
															OFFSET 0.000000 0.000000 0.000000
														}
													}
												}
											}
										}
										JOINT LeftHandRing1
										{
											OFFSET 22.908401 -0.839279 -6.020567
											CHANNELS 3 Xrotation Yrotation Zrotation
											JOINT LeftHandRing2
											{
												OFFSET 6.337502 0.000000 0.000000
												CHANNELS 3 Xrotation Yrotation Zrotation
												JOINT LeftHandRing3
												{
													OFFSET 5.779297 0.000000 0.000000
													CHANNELS 3 Xrotation Yrotation Zrotation
													JOINT LeftHandRing4
													{
														OFFSET 4.965698 0.000000 0.000000
														CHANNELS 3 Xrotation Yrotation Zrotation
														End Site
														{
															OFFSET 0.000000 0.000000 0.000000
														}
													}
												}
											}
										}
										JOINT LeftHandPinky1
										{
											OFFSET 20.037003 -1.530319 -10.950146
											CHANNELS 3 Xrotation Yrotation Zrotation
											JOINT LeftHandPinky2
											{
												OFFSET 5.254700 0.000000 0.000000
												CHANNELS 3 Xrotation Yrotation Zrotation
												JOINT LeftHandPinky3
												{
													OFFSET 4.810204 0.000000 0.000000
													CHANNELS 3 Xrotation Yrotation Zrotation
													JOINT LeftHandPinky4
													{
														OFFSET 3.647202 0.000000 0.000000
														CHANNELS 3 Xrotation Yrotation Zrotation
														End Site
														{
															OFFSET 0.000000 0.000000 0.000000
														}
													}
												}
											}
										}
									}
								}
							}
						}
					}
					JOINT RightShoulder
					{
						OFFSET -7.570500 7.247704 -3.868750
						CHANNELS 3 Xrotation Yrotation Zrotation
						JOINT RightShoulder_split
						{
							OFFSET -7.570500 7.247704 -3.868750
							CHANNELS 3 Xrotation Yrotation Zrotation
							JOINT RightArm
							{
								OFFSET -9.308998 -2.777710 0.208500
								CHANNELS 3 Xrotation Yrotation Zrotation
								JOINT RightForeArm
								{
									OFFSET -29.972300 0.000000 0.000000
									CHANNELS 3 Xrotation Yrotation Zrotation
									JOINT RightHand
									{
										OFFSET -26.026505 0.000000 0.000000
										CHANNELS 3 Xrotation Yrotation Zrotation
										JOINT RightHandThumb1
										{
											OFFSET -12.240601 -7.148026 9.207092
											CHANNELS 3 Xrotation Yrotation Zrotation
											JOINT RightHandThumb2
											{
												OFFSET -4.138618 -2.389435 2.389433
												CHANNELS 3 Xrotation Yrotation Zrotation
												JOINT RightHandThumb3
												{
													OFFSET -2.726974 -1.574417 1.574421
													CHANNELS 3 Xrotation Yrotation Zrotation
													JOINT RightHandThumb4
													{
														OFFSET -3.941010 -2.275345 2.275343
														CHANNELS 3 Xrotation Yrotation Zrotation
														End Site
														{
															OFFSET 0.000000 0.000000 0.000000
														}
													}
												}
											}
										}
										JOINT RightHandIndex1
										{
											OFFSET -24.424698 -1.985657 5.953444
											CHANNELS 3 Xrotation Yrotation Zrotation
											JOINT RightHandIndex2
											{
												OFFSET -6.426697 0.000000 0.000000
												CHANNELS 3 Xrotation Yrotation Zrotation
												JOINT RightHandIndex3
												{
													OFFSET -5.337898 0.000000 0.000000
													CHANNELS 3 Xrotation Yrotation Zrotation
													JOINT RightHandIndex4
													{
														OFFSET -4.409401 0.000000 0.000000
														CHANNELS 3 Xrotation Yrotation Zrotation
														End Site
														{
															OFFSET 0.000000 0.000000 0.000000
														}
													}
												}
											}
										}
										JOINT RightHandMiddle1
										{
											OFFSET -23.810097 0.000000 0.000000
											CHANNELS 3 Xrotation Yrotation Zrotation
											JOINT RightHandMiddle2
											{
												OFFSET -7.176498 0.000000 0.000000
												CHANNELS 3 Xrotation Yrotation Zrotation
												JOINT RightHandMiddle3
												{
													OFFSET -6.774902 0.000000 0.000000
													CHANNELS 3 Xrotation Yrotation Zrotation
													JOINT RightHandMiddle4
													{
														OFFSET -5.403328 0.000000 0.000000
														CHANNELS 3 Xrotation Yrotation Zrotation
														End Site
														{
															OFFSET 0.000000 0.000000 0.000000
														}
													}
												}
											}
										}
										JOINT RightHandRing1
										{
											OFFSET -22.908302 -0.839325 -6.020576
											CHANNELS 3 Xrotation Yrotation Zrotation
											JOINT RightHandRing2
											{
												OFFSET -6.337502 0.000000 0.000000
												CHANNELS 3 Xrotation Yrotation Zrotation
												JOINT RightHandRing3
												{
													OFFSET -5.779297 0.000000 0.000000
													CHANNELS 3 Xrotation Yrotation Zrotation
													JOINT RightHandRing4
													{
														OFFSET -4.965698 0.000000 0.000000
														CHANNELS 3 Xrotation Yrotation Zrotation
														End Site
														{
															OFFSET 0.000000 0.000000 0.000000
														}
													}
												}
											}
										}
										JOINT RightHandPinky1
										{
											OFFSET -20.037003 -1.530334 -10.950259
											CHANNELS 3 Xrotation Yrotation Zrotation
											JOINT RightHandPinky2
											{
												OFFSET -5.254700 0.000000 0.000000
												CHANNELS 3 Xrotation Yrotation Zrotation
												JOINT RightHandPinky3
												{
													OFFSET -4.810204 0.000000 0.000000
													CHANNELS 3 Xrotation Yrotation Zrotation
													JOINT RightHandPinky4
													{
														OFFSET -3.647202 0.000000 0.000000
														CHANNELS 3 Xrotation Yrotation Zrotation
														End Site
														{
															OFFSET 0.000000 0.000000 0.000000
														}
													}
												}
											}
										}
									}
								}
							}
						}
					}
				}
			}
		}
	}
	JOINT LeftUpLeg
	{
		OFFSET 15.427100 -6.655098 0.678600
		CHANNELS 3 Xrotation Yrotation Zrotation
		JOINT LeftLeg
		{
			OFFSET 4.081073 -39.591068 13.024000
			CHANNELS 3 Xrotation Yrotation Zrotation
			JOINT LeftFoot
			{
				OFFSET -4.081074 -37.707932 -15.979700
				CHANNELS 3 Xrotation Yrotation Zrotation
				JOINT LeftToeBase
				{
					OFFSET 5.346399 -15.068900 20.645000
					CHANNELS 3 Xrotation Yrotation Zrotation
					JOINT LeftToe_End
					{
						OFFSET 2.754700 0.931300 11.300900
						CHANNELS 3 Xrotation Yrotation Zrotation
						End Site
						{
							OFFSET 0.000000 0.000000 0.000000
						}
					}
				}
			}
		}
	}
	JOINT RightUpLeg
	{
		OFFSET -15.569500 -6.655098 0.678600
		CHANNELS 3 Xrotation Yrotation Zrotation
		JOINT RightLeg
		{
			OFFSET -4.081825 -39.591045 13.023800
			CHANNELS 3 Xrotation Yrotation Zrotation
			JOINT RightFoot
			{
				OFFSET 4.081824 -37.707954 -15.979600
				CHANNELS 3 Xrotation Yrotation Zrotation
				JOINT RightToeBase
				{
					OFFSET -5.346400 -15.068900 20.645000
					CHANNELS 3 Xrotation Yrotation Zrotation
					JOINT RightToe_End
					{
						OFFSET -2.754700 0.931300 11.300900
						CHANNELS 3 Xrotation Yrotation Zrotation
						End Site
						{
							OFFSET 0.000000 0.000000 0.000000
						}
					}
				}
			}
		}
	}
}
MOTION
Frames: 4
Frame Time: 0.016667
-1.590364 129.211990 11.876929 5.758971 -19.839843 13.196708 34.181135 -7.765250 -12.672105 -1.919978 -0.704206 -1.068982 0.000000 0.000000 0.000000 -1.861960 -0.963988 -0.958728 -27.161323 7.980846 9.093852 17.861667 13.973910 -17.635106 0.000000 -0.000000 -0.000001 14.342931 -28.036221 31.312982 0.000000 0.000000 0.000000 -54.053308 10.158287 9.211010 -39.508642 -62.618341 -18.464414 0.677884 -3.694925 5.616495 -4.212054 -7.549086 8.222297 2.840618 18.398132 -2.239067 5.152347 25.924816 13.300406 0.000002 -0.000002 0.000002 13.557851 -2.400511 2.442073 -0.158547 0.312400 -41.706884 -0.128887 0.311001 -40.965412 -0.000000 0.000001 -0.000004 8.872537 -0.946683 -8.698838 0.333529 0.703002 -39.129788 0.379050 0.195411 -48.544770 0.000002 -0.000001 -0.000001 6.417769 2.640985 -21.662585 0.073917 0.361686 -38.094007 0.395908 0.821418 -44.654674 0.000000 -0.000000 -0.000001 -5.773319 7.351755 -20.511939 0.248348 0.299228 -53.404016 0.241118 0.241023 -44.234030 0.000001 0.000001 -0.000002 3.778683 7.559636 -24.581260 0.000000 0.000000 0.000000 -73.831435 -14.404393 -24.052238 -51.826185 60.836707 47.494919 9.141609 7.948703 -22.975995 -13.975083 13.836794 -0.527699 10.118386 -39.599439 -4.011391 6.542899 -35.207112 -15.255695 -0.000000 0.000000 0.000006 11.271641 3.607143 -9.674700 -0.308899 -0.132930 59.230178 -0.170452 -0.110470 51.772858 -0.000003 0.000003 -0.000003 5.407487 -9.717475 -10.964791 0.477114 -0.644333 52.079878 0.534054 -0.126601 64.442971 -0.000003 0.000002 -0.000001 4.999331 -19.199891 -5.805077 0.293140 -0.312923 63.639775 0.520283 -0.595208 70.565471 0.000004 0.000001 -0.000001 10.206700 -27.451358 11.592854 0.317943 -0.173603 82.243872 0.448141 -0.094695 74.484982 -0.000002 -0.000000 0.000000 -96.335078 -8.456964 27.146993 53.707304 -6.894389 -14.420445 20.192640 -6.872881 6.473909 -0.331959 0.927827 -0.306362 0.000001 -0.000002 -0.000000 -77.759511 16.810912 1.337837 120.386838 1.151107 1.672639 13.457304 1.591287 -2.144578 -0.332332 -0.927799 0.306428 -0.000002 0.000000 0.000000 
-1.706953 129.885773 17.320330 5.346502 -19.558849 12.767515 33.947830 -8.128827 -12.254002 -1.705518 -0.826078 -1.172774 0.000000 0.000000 0.000000 -1.718714 -1.101923 -0.901941 -26.754457 7.923679 9.300321 17.616752 14.580977 -17.741030 0.000001 -0.000000 -0.000000 13.329955 -28.376424 28.717339 0.000000 0.000000 0.000000 -55.448582 15.227876 10.991234 -68.123754 -71.308158 -47.693053 11.233198 4.906539 -1.251267 -4.209892 -7.549274 8.222487 2.840276 18.399228 -2.238927 5.151164 25.910910 13.294530 0.000000 0.000003 -0.000002 13.557226 -2.399525 2.530735 -0.158566 0.312326 -41.632281 -0.128875 0.310879 -40.861754 -0.000000 -0.000001 0.000001 8.872450 -0.946800 -8.589844 0.333088 0.702605 -39.040470 0.378432 0.195024 -48.423388 0.000002 -0.000000 0.000002 6.418081 2.640024 -21.526847 0.073508 0.361143 -37.984915 0.395117 0.820805 -44.508931 0.000003 -0.000001 0.000001 -5.768892 7.348701 -20.334959 0.247769 0.298827 -53.267307 0.240404 0.240418 -44.057387 0.000000 0.000000 0.000001 3.694509 8.731529 -22.067279 0.000000 0.000000 0.000000 -77.217686 -16.836287 -27.351925 -55.432388 62.389810 51.618086 16.842394 16.542175 -19.530858 -13.852539 13.688643 -0.611935 9.965783 -39.155156 -3.888400 6.510266 -34.644427 -15.024715 0.000002 0.000002 -0.000001 11.276143 3.678418 -9.745178 -0.306504 -0.132130 58.914657 -0.169445 -0.110411 51.552489 0.000001 0.000002 -0.000002 5.433459 -9.621378 -11.002385 0.474226 -0.645765 51.742125 0.531776 -0.127870 64.128557 -0.000000 0.000002 0.000001 5.046108 -19.088471 -5.820359 0.290778 -0.313055 63.102315 0.518612 -0.598783 70.126631 -0.000001 -0.000001 0.000001 10.132928 -27.291950 11.300287 0.315812 -0.176087 81.291279 0.445615 -0.098548 73.835615 -0.000004 0.000000 0.000000 -93.755398 -6.786252 24.975241 52.283244 -7.038740 -13.814134 19.731249 -6.262539 6.893741 -0.332160 0.927319 -0.306085 0.000000 0.000000 -0.000000 -83.009714 16.425015 2.407417 117.982775 0.234039 2.057145 18.146532 1.282698 2.019764 -0.332186 -0.927357 0.306094 0.000001 -0.000001 0.000001 
-1.883732 130.230896 22.359644 4.966864 -19.605334 12.500178 33.120912 -8.290447 -11.844726 -1.359167 -0.996960 -1.581734 0.000000 0.000000 0.000000 -1.480011 -1.199183 -0.910619 -25.746975 7.766828 9.873793 17.083715 15.326019 -18.187470 -0.000001 0.000000 -0.000000 11.862451 -27.977718 26.191839 0.000000 0.000000 0.000000 -55.866016 16.656021 11.417599 -90.273722 -72.339995 -70.563545 19.159073 8.441117 -6.769420 -4.203535 -7.550118 8.223044 2.839345 18.402336 -2.238592 5.147708 25.871694 13.277950 -0.000002 -0.000001 -0.000003 13.555467 -2.396730 2.784491 -0.158623 0.312161 -41.417932 -0.129033 0.310468 -40.562489 -0.000001 -0.000000 -0.000002 8.872078 -0.947100 -8.279683 0.332006 0.701601 -38.784823 0.376813 0.193726 -48.074314 -0.000001 0.000001 -0.000001 6.418725 2.637045 -21.143308 0.072422 0.359719 -37.674241 0.392917 0.819029 -44.091982 0.000000 -0.000001 0.000000 -5.757119 7.340630 -19.839319 0.246128 0.297659 -52.881042 0.238458 0.238654 -43.554597 -0.000002 -0.000001 0.000001 3.769996 11.074699 -19.093292 0.000000 0.000000 0.000000 -80.238699 -18.402073 -30.381573 -59.729273 63.810093 56.438799 22.161756 22.495035 -18.508165 -13.517994 13.281398 -0.839645 9.540040 -37.919537 -3.541108 6.405205 -33.062091 -14.379799 0.000002 0.000001 0.000001 11.289811 3.880607 -9.945033 -0.299523 -0.129948 58.013865 -0.166491 -0.110365 50.920201 0.000002 -0.000003 -0.000000 5.507132 -9.351072 -11.108387 0.465972 -0.649701 50.784085 0.525304 -0.131444 63.230831 -0.000002 0.000005 0.000002 5.176580 -18.778295 -5.863776 0.284161 -0.313263 61.589960 0.513554 -0.608694 68.881754 -0.000001 0.000001 0.000001 9.940326 -26.854685 10.500304 0.309572 -0.182933 78.639349 0.438294 -0.109051 72.008478 -0.000001 -0.000000 0.000000 -90.436158 -6.375382 23.096203 50.487963 -5.383132 -13.180234 19.741625 -7.143994 6.781335 -0.332172 0.925699 -0.305203 0.000001 -0.000001 -0.000001 -84.837520 15.338943 2.357155 114.007919 -1.039424 1.929997 20.964321 0.760351 5.753066 -0.332330 -0.925753 0.305247 0.000002 0.000000 -0.000002 
-2.135447 130.195251 27.061813 4.587422 -19.895253 12.397728 31.790685 -8.285656 -11.435674 -0.846939 -1.225809 -2.282625 0.000000 0.000000 0.000000 -0.947546 -1.280958 -1.065723 -24.462876 7.530892 10.745750 16.255905 16.199322 -18.782568 -0.000000 0.000001 -0.000000 9.913583 -27.228086 23.284591 0.000000 0.000000 0.000000 -55.741041 16.364887 11.372916 -102.459101 -71.985986 -83.327953 24.322536 9.290154 -10.411716 -4.193089 -7.551389 8.223956 2.837665 18.407228 -2.238118 5.142391 25.810047 13.251831 0.000001 -0.000001 0.000002 13.552902 -2.392298 3.184917 -0.158795 0.311835 -41.077762 -0.129242 0.309967 -40.085489 -0.000001 -0.000001 -0.000004 8.871435 -0.947715 -7.793591 0.330248 0.699881 -38.381258 0.374179 0.191686 -47.520471 0.000002 -0.000001 0.000000 6.419544 2.632734 -20.547441 0.070586 0.357303 -37.187279 0.389498 0.816112 -43.433791 0.000001 -0.000000 -0.000001 -5.740885 7.329624 -19.078033 0.243614 0.295888 -52.280805 0.235420 0.235846 -42.766461 0.000000 -0.000000 -0.000000 3.679092 13.977358 -16.002225 0.000000 0.000000 0.000000 -82.618269 -19.392430 -32.930531 -63.588836 64.803817 60.717281 25.040903 25.957318 -18.710091 -13.022077 12.669908 -1.171282 8.888077 -36.040361 -2.998063 6.205605 -30.619912 -13.395411 0.000004 0.000001 -0.000000 11.314045 4.196109 -10.256874 -0.288789 -0.126874 56.596669 -0.161917 -0.110444 49.919401 0.000005 -0.000000 0.000002 5.623079 -8.933879 -11.273146 0.452879 -0.655360 49.288414 0.514940 -0.136643 61.818519 0.000000 0.000000 -0.000001 5.376704 -18.306171 -5.932443 0.273741 -0.313145 59.252663 0.504962 -0.623707 66.938347 -0.000003 -0.000001 -0.000001 9.678763 -26.201516 9.310104 0.298891 -0.192546 74.597127 0.425958 -0.124447 69.184612 0.000004 0.000000 -0.000001 -86.811766 -6.964545 21.171399 48.185339 -3.221049 -12.493557 20.286990 -8.066697 6.075238 -0.332285 0.923153 -0.303756 0.000001 -0.000001 -0.000002 -84.125275 13.547036 2.090963 108.901055 -1.827897 1.357070 22.262488 -1.105537 9.651144 -0.332169 -0.923210 0.303730 0.000002 -0.000002 0.000002 
